<?xml version="1.0" encoding="UTF-8"?>
<svg id="Layer_2" data-name="Layer 2" xmlns="http://www.w3.org/2000/svg" viewBox="0 0 1923.94 1086.99">
  <defs>
    <style>
      .cls-1 {
        fill: #ccd72a;
      }
    </style>
  </defs>
  <path class="cls-1" d="M1127.91,512.79c-85.86-24.05-127.75-103.25-136.68-179.99-.53-4.6-4.03-8.29-8.6-8.99l-11.96-1.84c-4.72-.73-9.24,2.2-10.48,6.8-.85,3.16-1.57,6.42-6.12,10.28-6.95,6.13-10.76,12.34-8.68,18.67,7.49,25.86.41,44.55-18.64,57.33-6.15,3.88-8.67,8.65-7.74,14.27,1.84,6.91-1.95,12.89-8.93,18.32-8.41,6.85-12.59,16.94-11.07,31.39,2.48,21.68,9.32,40.89,6.35,55.09-2.22,4.96-4.31,9.92-6.26,14.89l-.09.21c-3.42,8.74-6.41,17.48-9,26.24l-48.67,33.19,41.79-5.02c0,.06-.03.12-.04.19l-32.24,33.57,28.62-9.7c-.06.56-.11,1.11-.17,1.67l-20.32,27.32,19.01-9.24c-.02.57-.05,1.15-.07,1.73l-7.99,17.52,7.83-6.13c0,.8,0,1.6,0,2.39.99,88.08,89.19,98.54,97.84,168.53,6.25,59.8-37.45,60.69-55.5,13.61-11.6-37.25-24.15-63.37-37.43-81.14h.01c-10.03-13.94-26.33-28.38-44.1-42.94.61,4.11.92,8.04.69,11.62-.26-.07-.52-.13-.78-.18-5.23-3.82-10.7-7.63-16.31-11.44.84,3.46,1.44,6.8,1.66,9.94-.27,0-.54.01-.8.01-4.97-2.61-10.1-5.19-15.33-7.75,1.21,3.06,2.23,6.05,2.89,8.92-.14.02-.28.05-.42.07-4.27-2.04-8.65-4.05-13.1-6.05,1.22,2.82,2.27,5.58,3.02,8.26-.04.01-.09.02-.13.03-4.37-1.23-8.83-2.44-13.35-3.61,1.54,2.36,2.93,4.71,4.06,7.02-.05.03-.1.05-.16.07-3.81-.71-7.69-1.39-11.6-2.05,1.54,1.97,2.96,3.93,4.2,5.88-.16.09-.31.18-.47.28-3.02-.32-6.08-.61-9.17-.9,1.38,1.52,2.68,3.03,3.87,4.55-38.49,29.88-12.07,93.09,12.64,154.46,10.29,31.67-30.1,49.88-40.25,21.64-14.88-45.54,12.05-67.81-28.41-103.37-.8-.7-1.98-.71-2.84-.08-4.63,3.4-10.56,3.73-14.45.42-3.52-3.01-4.35-8.16-2.51-12.9.41-1.05.08-2.25-.86-2.86-8.85-5.8-19.43-11.97-32.09-18.65-5.29-3.07-6.12-3.1-6.57-10.06-.39-4.95-4.51-8.84-9.56-8.84-.17,0-.34,0-.52,0-4.89.26-8.89,4.32-9.08,9.21-.21,5.47,4.17,9.98,9.59,9.98.48,0,.94-.04,1.39-.1,1.16-.17,2.35-.03,3.47.34,1.25.41,2.41.87,3.47,1.39,1.6.78,2.9,2.07,3.75,3.63,13.05,23.88,16.28,45.14,9.16,63.64-.71,1.84.51,3.85,2.46,4.1,17.89,2.37,45.34,1.9,46.88,15.51.11,28.53-30.02,106.73,55.39,106.73,45.65-.97,113.58-4.7,46.4-118.21-25.19-52.7,46.33-47.4,39.77,28.07-6.69,74.51,57.02,100.41,146.28,69.38,160.25-79.13-48.01-208.09-58.57-274.98-5.64-46.93,25.15-85.58,81.44-118.42,22.89-13.35,59.13-27.23,94.64-39.99,6.22-2.24,5.91-11.16-.46-12.94ZM948.6,482.32l-8.14,8.14-6.79-6.79-6.78,6.79-8.15-8.14,6.79-6.79-6.79-6.79,8.15-8.14,6.78,6.79,6.79-6.79,8.14,8.14-6.79,6.79,6.79,6.79ZM1114.41,519.25c-62.26,10.69-158.44-98.28-136.58-182.04.37-1.39,2.38-1.27,2.58.16,10.92,78.24,61.29,162.26,134.04,180.48.75.19.71,1.27-.04,1.4Z"/>
  <polygon class="cls-1" points="1181.03 425.23 1096.48 428.11 1180.3 403.85 1181.03 425.23"/>
  <polygon class="cls-1" points="1064.11 347.54 1057.06 401.08 1050.96 349.08 1064.11 347.54"/>
  <path class="cls-1" d="M1194.81,107.1h-60.75c-47.65,0-86.28,38.63-86.28,86.29v60.74c0,44.75,34.05,81.54,77.66,85.86l-.18.43-46.39,68.04c-1.36,2,.88,4.48,3.01,3.32l123.93-67.52c7.15-3.9,14.56-7.29,22.07-10.41,31.25-12.98,53.22-43.78,53.22-79.72v-60.74c0-47.66-38.63-86.29-86.29-86.29ZM1134.86,273.64c0,.89-.9,1.77-2,1.77h-48.69c-.9,0-1.78-.88-1.78-1.77v-113.16c0-.9.66-1.79,1.56-1.79h41.57c.67,0,1.56.66,1.56,1.56v65.15c0,.66.68,1.32,1.34,1.32,5.77,0,6.44,0,6.44,1.56v45.36ZM1187.34,273.63c0,.9-.66,1.78-1.56,1.78h-41.57c-.68,0-1.57-.66-1.57-1.56v-65.14c0-.67-.67-1.33-1.33-1.33-5.77,0-6.45,0-6.45-1.56v-45.36c0-.88.9-1.77,2-1.77h48.69c.9,0,1.79.89,1.79,1.77v113.17ZM1246.49,273.63c0,.9-.66,1.78-1.56,1.78h-41.58c-.67,0-1.56-.66-1.56-1.56v-65.14c0-.67-.66-1.33-1.33-1.33-5.79,0-6.45,0-6.45-1.56v-45.36c0-.88.89-1.77,2-1.77h48.69c.9,0,1.79.89,1.79,1.77v113.17Z"/>
</svg>