<?xml version="1.0" encoding="UTF-8"?>
<svg id="Layer_1" data-name="Layer 1" xmlns="http://www.w3.org/2000/svg" viewBox="0 0 587.5 578.89">
  <defs>
    <style>
      .cls-1 {
        fill: #ccd72a;
      }
    </style>
  </defs>
  <g>
    <path class="cls-1" d="M153.18,415.19c3.69,0,5.38-2.68,5.38-6.72v-40.85c0-3.69-2.02-6.72-5.38-6.72-3.69,0-5.36,3.02-5.36,6.72v40.85c0,4.03,1.67,6.72,5.36,6.72Z"/>
    <path class="cls-1" d="M563.05,287.63h-42.85c-1.59,0-3.13.18-4.62.51-1.48-.32-3.01-.51-4.58-.51h-42.85c-11.88,0-21.55,9.58-21.55,21.35v32.65c-6.48-2.55-13.39-3.8-20.16-3.8-2.71,0-5.41.22-8.07.64v-28.02c0-13-9.95-22.81-23.14-22.81h-24.36c-8.62-32.93-23.92-66.94-19.75-84.96,7.57-28,33.96-42.92,73.53-48.68,16.09-2.34,39.9-1.91,63.04-1.02,4.06.16,5.93-4.99,2.71-7.47-43.33-33.41-48.98-88.09-36.43-133.81.75-2.74-.39-5.64-2.83-7.09l-6.38-3.8c-2.52-1.5-5.76-.87-7.52,1.47-1.21,1.6-2.37,3.29-5.84,4.44-5.36,1.9-8.95,4.55-9.23,8.63-1.68,16.44-9.99,25.45-23.77,28.34-4.39.79-6.92,2.93-7.68,6.34-.55,4.36-4.07,6.88-9.29,8.37-6.36,1.96-11.06,6.74-13.51,15.32-3.57,12.91-4.09,25.41-9.04,32.81-2.41,2.31-4.73,4.66-6.98,7.04l-.1.1h0c-3.96,4.18-7.66,8.48-11.15,12.86l-35.32,7.7,24.93,6.74s-.04.07-.07.1l-26.06,11.7,18.52,1.05c-.16.3-.32.61-.48.92l-17.84,10.88,12.94-.89c-.15.32-.29.64-.44.97l-8.57,8.14,5.86-1.69c-.18.45-.37.9-.55,1.36-19.66,50.34,28.12,76.55,16.96,118.36-.54,1.88-1.12,3.63-1.74,5.26-1.34,1.9-2.41,4.03-3.15,6.36-.79-.67-1.61-1.34-2.45-1.98-1.69-1.29-3.47-2.51-5.33-3.64l-.19-.19-2.5-1.36c-5.82-3.18-12.28-5.5-19.32-6.96-.02-.81-.03-1.63-.01-2.47,1.95-23.86.81-41.6-2.67-54.77h0c-2.5-10.23-8.46-22.2-15.23-34.56-.6,2.48-1.32,4.79-2.27,6.77-.13-.09-.27-.19-.4-.28-2.1-3.37-4.33-6.8-6.65-10.25-.32,2.16-.74,4.2-1.34,6.04-.15-.06-.31-.12-.46-.18-2.22-2.62-4.55-5.27-6.94-7.93-.01,2.02-.13,3.95-.41,5.74-.08-.02-.17-.04-.25-.06-1.96-2.14-3.99-4.29-6.07-6.45.05,1.89.01,3.7-.18,5.39-.03,0-.06,0-.08-.01-2.2-1.71-4.46-3.41-6.77-5.12.33,1.7.58,3.35.7,4.93-.04,0-.07,0-.11,0-2.01-1.28-4.05-2.56-6.13-3.83.43,1.48.78,2.92,1.04,4.31-.11.02-.22.03-.33.05-1.65-.87-3.32-1.75-5.02-2.61.44,1.18.83,2.34,1.16,3.47-28.76,8.16-28.25,50.2-28.28,90.79-.46,6.63-3.65,11.2-7.71,13.74-5.97-4.3-12.73-7.72-20.16-10.15,0-.17-.01-.34,0-.52,2-29.33,22.43-35.82,7.58-65.34-.29-.58-.96-.86-1.6-.7-3.42.87-6.87-.31-8.32-3.08-1.32-2.52-.6-5.64,1.53-7.92.47-.5.56-1.26.17-1.83-3.7-5.33-8.31-11.27-13.97-17.98-2.31-2.96-2.77-3.17-1.43-7.24h0c.95-3-.64-6.28-3.71-7.34-2.84-.98-6.05.42-7.28,3.16-1.38,3.07.08,6.64,3.17,7.88.27.11.54.19.81.26.7.17,1.35.52,1.9.99.62.52,1.17,1.05,1.65,1.59.73.81,1.17,1.84,1.3,2.92,1.94,16.58-1.11,29.42-9.41,38.32-.82.88-.59,2.3.46,2.9,9.64,5.45,25.36,11.49,23.12,19.59-2.84,7.12-11.17,18.33-15.56,30.33-3-.27-6.06-.42-9.13-.42-19.4,0-36.55,5.31-50.04,15.4-3.33-8.92-11.91-15.3-21.98-15.3H24.15c-13.09,0-24.15,11.21-24.15,24.48v242.69c0,13.32,10.53,24.15,23.48,24.15h199.5c7.04,0,13.34-3.13,17.65-8.04,9.8,5.07,21.04,7.86,33.31,7.94h.88c20.91,0,37.99-5.15,50.95-15.28,3.14,8.79,11.55,15.28,21.15,15.28h47.98c2.71,0,5.3-.49,7.7-1.4,2.41.9,5.02,1.4,7.75,1.4h46.32c12.02,0,21.8-9.78,21.8-21.8v-127.07h32.73c2.72,0,5.32-.54,7.71-1.49,2.4.95,5.01,1.49,7.75,1.49h36.58c11.67,0,21.16-9.58,21.16-21.36v-99.59c0-11.77-9.58-21.35-21.36-21.35ZM445.34,11.13c.53-.71,1.64-.18,1.43.68-11.75,47.03-2.39,106.4,34.82,133.48.38.28.11.88-.35.78-37.88-8.22-67.58-92.31-35.9-134.95ZM383.81,77.82l-2.3-5.42,6.5-2.76,2.3,5.42,5.42-2.3,2.76,6.5-5.42,2.3,2.3,5.42-6.5,2.76-2.3-5.42-5.42,2.3-2.76-6.5,5.42-2.3ZM258.09,289.5c-4.83,1.1-9.47,2.63-13.88,4.6-1.43.63-2.84,1.31-4.22,2.04-.23-6.34-.93-13.54-2.17-21.74-2.04-32.75,30.87-19.22,20.28,15.1ZM95.45,359.24c0-30.89,23.16-52.04,57.73-52.04,3.05,0,5.99.16,8.85.48,21.89,2.42,38.11,13.94,45.1,31.89,2.47,6.34,3.78,13.51,3.78,21.34v56.29c0,31.22-23.16,52.36-57.74,52.36s-57.73-21.47-57.73-52.36v-57.97ZM227.29,555.35c0,2.02-1.66,3.69-3.69,3.69H24.09c-2.01,0-3.69-2.02-3.69-4.36v-242.69c0-2.01,2.02-4.69,4.36-4.69h56.39c2.02,0,3.69,1.66,3.69,3.69v176.22c0,1.35,1,2.35,2.01,2.35h117.95c1.59,0,2.88,1.29,2.88,2.88v2.48c0,20.34,5.72,37.34,16.07,48.51,2.03,2.18,3.52,4.52,3.52,7.49v4.43ZM274.69,558.95c-32.23-.21-54.38-25.17-54.38-64.11v-129.56c0-8.89,1.82-17.65,5.36-25.56,3.59-8.07,8.96-15.26,15.96-20.81h0c3.35-2.66,7.09-4.95,11.19-6.76,6.77-3.03,14.52-4.8,23.21-4.95,12.7-.19,22.59,2.21,30.29,6.41h.01c1.96,1.08,3.79,2.26,5.47,3.55,17.34,13.26,20.79,37.39,21.46,57.89.19,5.63.16,10.97.16,15.75,0,16.12,0,20.57-4.02,20.9l-43.97-.08c-2.35.33-4.03-2.02-4.03-4.03v-47.01c0-4.02-2.68-6.72-5.36-6.72-2.35,0-5.38,2.69-5.38,6.72v139.63c0,4.02,3.02,6.71,5.72,6.71,2.34,0,5.02-2.68,5.02-6.71v-27.48c0-2.02,1.35-3.36,3.69-3.36h44.65c2.34.34,3.68,2.02,3.68,4.03,0,22.82,9.67,86.01-58.74,85.55ZM459.29,556.94c0,1-1.01,2.01-2.01,2.01h-46.32c-1.34,0-2.35-1.01-2.35-2.35v-138.96c0-5.03-2.68-6.71-5.36-6.71s-5.36,1.67-5.36,6.71v138.63c0,1.34-1.01,2.68-2.36,2.68h-47.98c-1.35,0-2.69-1.68-2.69-3.01v-244.54c0-3.02,1.34-4.03,3.69-4.03h47.32c2.35,0,3.35,1.01,3.35,3.02v55.89c0,2.36.67,3.02,1.01,3.02s1.68-.66,3.35-2.01c5.72-5.38,13.76-9.73,23.49-9.73,14.12,0,32.23,8.39,32.23,34.57v164.81ZM513.19,408.51c0,.79-.58,1.57-1.37,1.57h-36.58c-.59,0-1.37-.58-1.37-1.37v-57.33c0-.58-.59-1.17-1.18-1.17-5.08,0-5.67,0-5.67-1.37v-39.92c0-.78.79-1.56,1.76-1.56h42.85c.79,0,1.57.78,1.57,1.56v99.59ZM565.24,408.51c0,.79-.58,1.57-1.37,1.57h-36.58c-.59,0-1.37-.58-1.37-1.37v-57.33c0-.58-.58-1.17-1.18-1.17-5.09,0-5.67,0-5.67-1.37v-39.92c0-.78.78-1.56,1.76-1.56h42.85c.79,0,1.57.78,1.57,1.56v99.59Z"/>
  </g>
  <polygon class="cls-1" points="563.58 93.58 556.43 105.02 511.2 76.75 563.58 93.58"/>
  <polygon class="cls-1" points="522.64 23.22 515.22 19.4 500.1 48.74 522.64 23.22"/>
  <polygon class="cls-1" points="582.6 24.86 587.5 47.79 496.79 67.19 582.6 24.86"/>
</svg>