<?xml version="1.0" encoding="UTF-8"?>
<svg id="serpent_green" data-name="serpent green" xmlns="http://www.w3.org/2000/svg" viewBox="0 0 584.96 584.96">
  <defs>
    <style>
      .cls-1 {
        fill: #ccd72a;
      }
    </style>
  </defs>
  <path class="cls-1" d="M362.84,279.46c-36.41-10.2-54.17-43.78-57.95-76.32-.23-1.95-1.71-3.51-3.65-3.81l-5.07-.78c-2-.31-3.92.93-4.44,2.89-.36,1.34-.67,2.72-2.6,4.36-2.95,2.6-4.56,5.23-3.68,7.92,3.18,10.97.18,18.89-7.9,24.31-2.61,1.64-3.68,3.67-3.28,6.05.78,2.93-.83,5.46-3.79,7.77-3.57,2.9-5.34,7.18-4.7,13.31,1.05,9.19,3.95,17.34,2.69,23.36-.94,2.1-1.83,4.21-2.66,6.31l-.04.09h0c-1.45,3.7-2.72,7.41-3.82,11.13l-20.64,14.07,17.72-2.13s-.01.05-.02.08l-13.67,14.23,12.14-4.11c-.03.24-.05.47-.07.71l-8.62,11.58,8.06-3.92c0,.24-.02.49-.03.73l-3.39,7.43,3.32-2.6c0,.34,0,.68,0,1.01.42,37.34,37.82,41.78,41.48,71.46,2.65,25.35-15.88,25.73-23.53,5.77-4.92-15.79-10.24-26.87-15.87-34.4h0c-4.25-5.91-11.16-12.04-18.7-18.21.26,1.74.39,3.41.29,4.93-.11-.03-.22-.05-.33-.08-2.22-1.62-4.54-3.23-6.91-4.85.35,1.47.61,2.88.7,4.21-.11,0-.23,0-.34,0-2.1-1.11-4.28-2.2-6.5-3.29.51,1.3.94,2.57,1.22,3.78-.06,0-.12.02-.18.03-1.81-.86-3.67-1.72-5.56-2.57.52,1.2.96,2.37,1.28,3.5-.02,0-.04.01-.06.02-1.85-.52-3.74-1.03-5.66-1.53.65,1,1.24,2,1.72,2.98-.02,0-.05.02-.07.03-1.62-.3-3.26-.59-4.92-.87.66.83,1.26,1.67,1.78,2.5-.06.04-.13.08-.2.12-1.28-.13-2.58-.26-3.89-.38.59.64,1.14,1.28,1.64,1.93-16.32,12.67-5.12,39.47,5.36,65.49,4.36,13.43-12.76,21.15-17.07,9.18-6.31-19.31,5.11-28.75-12.05-43.83-.34-.3-.84-.3-1.2-.03-1.96,1.44-4.48,1.58-6.13.17-1.5-1.28-1.85-3.46-1.07-5.47.17-.45.04-.95-.36-1.21-3.75-2.46-8.24-5.07-13.6-7.91-2.24-1.3-2.6-1.31-2.79-4.27h0c-.17-2.17-2.04-3.86-4.27-3.74-2.07.11-3.77,1.83-3.85,3.9-.09,2.32,1.77,4.23,4.07,4.23.2,0,.4-.02.59-.04.49-.07,1-.01,1.47.14.53.18,1.02.37,1.47.59.68.33,1.23.88,1.59,1.54,5.53,10.12,6.9,19.14,3.88,26.99-.3.78.22,1.63,1.04,1.74,7.58,1,19.22.8,19.88,6.57.05,12.1-12.73,45.25,23.48,45.25,19.36-.41,48.16-1.99,19.67-50.12-10.68-22.34,19.64-20.1,16.86,11.9-2.84,31.59,24.18,42.57,62.02,29.42,67.95-33.55-20.36-88.23-24.83-116.59-2.39-19.9,10.66-36.28,34.53-50.21,9.71-5.66,25.07-11.54,40.13-16.95,2.64-.95,2.51-4.73-.19-5.49ZM286.81,266.54l-3.45,3.45-2.88-2.88-2.88,2.88-3.45-3.45,2.88-2.88-2.88-2.88,3.45-3.45,2.88,2.88,2.88-2.88,3.45,3.45-2.88,2.88,2.88,2.88ZM357.11,282.2c-26.4,4.53-67.17-41.67-57.91-77.18.15-.59,1.01-.54,1.09.07,4.63,33.18,25.99,68.8,56.84,76.53.31.08.3.54-.02.59Z"/>
  <polygon class="cls-1" points="385.05 233.27 385.36 242.34 349.51 243.56 385.05 233.27"/>
  <polygon class="cls-1" points="335.79 209.39 330.21 210.05 332.79 232.1 335.79 209.39"/>
  <path class="cls-1" d="M391.2,107.45h-25.76c-20.21,0-36.59,16.38-36.59,36.59v25.76c0,18.97,14.44,34.57,32.93,36.4l-.08.18-19.67,28.85c-.58.85.37,1.9,1.28,1.41l52.55-28.63c3.03-1.65,6.17-3.09,9.36-4.41,13.25-5.5,22.56-18.56,22.56-33.8v-25.76c0-20.21-16.38-36.59-36.59-36.59ZM365.78,178.06c0,.38-.38.75-.85.75h-20.65c-.38,0-.76-.38-.76-.75v-47.98c0-.38.28-.76.66-.76h17.63c.29,0,.66.28.66.66v27.62c0,.28.29.56.57.56,2.45,0,2.73,0,2.73.66v19.23ZM388.03,178.06c0,.38-.28.76-.66.76h-17.63c-.29,0-.66-.28-.66-.66v-27.62c0-.28-.29-.56-.57-.56-2.45,0-2.73,0-2.73-.66v-19.23c0-.38.38-.75.85-.75h20.65c.38,0,.76.38.76.75v47.98ZM413.11,178.06c0,.38-.28.76-.66.76h-17.63c-.29,0-.66-.28-.66-.66v-27.62c0-.28-.28-.56-.57-.56-2.45,0-2.73,0-2.73-.66v-19.23c0-.38.38-.75.85-.75h20.65c.38,0,.76.38.76.75v47.98Z"/>
</svg>