<?xml version="1.0" encoding="UTF-8"?>
<svg xmlns="http://www.w3.org/2000/svg" version="1.1" viewBox="0 0 576 576">
  <!-- Generator: Adobe Illustrator 30.0.0, SVG Export Plug-In . SVG Version: 2.1.1 Build 123)  -->
  <defs>
    <style>
      .st0 {
        fill: #fff;
      }

      .st1 {
        fill: #0d1729;
      }

      .st2 {
        fill: #fffef1;
      }

      .st3 {
        fill: #ccd72a;
      }

      .st4 {
        display: none;
      }
    </style>
  </defs>
  <g id="white_bg" class="st4">
    <rect class="st0" x="-4.48" y="-4.48" width="584.96" height="584.96"/>
  </g>
  <g id="blue_bg" class="st4">
    <rect class="st1" x="-4.48" y="-4.48" width="584.96" height="584.96"/>
  </g>
  <g id="green_bg" class="st4">
    <rect class="st3" x="-4.48" y="-4.48" width="584.96" height="584.96"/>
  </g>
  <g id="primary_blue" class="st4">
    <g>
      <g>
        <path class="st1" d="M200.92,365.9c2.29,0,3.33-1.66,3.33-4.16v-25.3c0-2.29-1.25-4.16-3.33-4.16-2.29,0-3.32,1.87-3.32,4.16v25.3c0,2.5,1.04,4.16,3.32,4.16Z"/>
        <path class="st1" d="M454.82,286.88h-26.54c-.98,0-1.94.11-2.86.31-.92-.2-1.86-.31-2.84-.31h-26.54c-7.36,0-13.35,5.93-13.35,13.22v20.22c-4.01-1.58-8.29-2.36-12.49-2.36-1.68,0-3.35.13-5,.4v-17.36c0-8.06-6.16-14.13-14.33-14.13h-15.09c-5.34-20.4-14.82-41.47-12.24-52.63,4.69-17.34,21.04-26.58,45.55-30.16,9.97-1.45,24.72-1.18,39.05-.63,2.51.1,3.67-3.09,1.68-4.63-26.84-20.69-30.34-54.57-22.57-82.89.47-1.7-.24-3.49-1.75-4.39l-3.96-2.35c-1.56-.93-3.57-.54-4.66.91-.75.99-1.47,2.04-3.62,2.75-3.32,1.17-5.55,2.82-5.72,5.35-1.04,10.18-6.19,15.76-14.73,17.56-2.72.49-4.29,1.81-4.76,3.93-.34,2.7-2.52,4.26-5.75,5.19-3.94,1.22-6.85,4.18-8.37,9.49-2.21,8-2.53,15.74-5.6,20.32-1.49,1.43-2.93,2.88-4.33,4.36l-.06.06h0c-2.45,2.59-4.75,5.25-6.91,7.97l-21.88,4.77,15.45,4.17s-.03.04-.04.06l-16.14,7.25,11.47.65c-.1.19-.2.38-.3.57l-11.05,6.74,8.02-.55c-.09.2-.18.4-.27.6l-5.31,5.04,3.63-1.05c-.11.28-.23.56-.34.84-12.18,31.18,17.42,47.42,10.51,73.32-.33,1.17-.7,2.25-1.08,3.26-.83,1.18-1.49,2.5-1.95,3.94-.49-.42-1-.83-1.52-1.23-1.04-.8-2.15-1.55-3.3-2.26l-.12-.12-1.55-.85c-3.61-1.97-7.61-3.41-11.97-4.31-.01-.5-.02-1.01,0-1.53,1.21-14.78.5-25.77-1.65-33.93h0c-1.55-6.34-5.24-13.75-9.43-21.41-.37,1.54-.82,2.97-1.41,4.19-.08-.06-.17-.12-.25-.17-1.3-2.09-2.69-4.21-4.12-6.35-.2,1.34-.46,2.6-.83,3.74-.09-.04-.19-.07-.28-.11-1.38-1.62-2.82-3.26-4.3-4.91,0,1.25-.08,2.45-.25,3.56-.05-.01-.1-.02-.16-.03-1.22-1.33-2.47-2.66-3.76-4,.03,1.17,0,2.29-.11,3.34-.02,0-.03,0-.05,0-1.36-1.06-2.76-2.11-4.19-3.17.21,1.05.36,2.08.43,3.05-.02,0-.04,0-.07,0-1.24-.79-2.51-1.58-3.8-2.38.26.91.49,1.81.64,2.67-.07.01-.14.02-.2.03-1.02-.54-2.06-1.08-3.11-1.62.27.73.52,1.45.72,2.15-17.82,5.06-17.5,31.1-17.52,56.24-.29,4.11-2.26,6.94-4.78,8.51-3.7-2.66-7.89-4.78-12.49-6.29,0-.11,0-.21,0-.32,1.24-18.17,13.89-22.19,4.69-40.48-.18-.36-.6-.53-.99-.43-2.12.54-4.25-.19-5.15-1.91-.82-1.56-.37-3.49.95-4.9.29-.31.35-.78.1-1.13-2.29-3.3-5.15-6.98-8.66-11.14-1.43-1.84-1.72-1.96-.88-4.48h0c.59-1.86-.4-3.89-2.3-4.55-1.76-.6-3.75.26-4.51,1.95-.85,1.9.05,4.11,1.96,4.88.17.07.33.12.5.16.43.1.83.32,1.17.61.38.32.73.65,1.03.99.45.5.73,1.14.81,1.81,1.2,10.27-.69,18.23-5.83,23.74-.51.55-.37,1.43.28,1.8,5.97,3.38,15.71,7.12,14.32,12.14-1.76,4.41-6.92,11.35-9.64,18.79-1.86-.17-3.75-.26-5.66-.26-12.02,0-22.64,3.29-31,9.54-2.06-5.53-7.38-9.48-13.62-9.48h-34.93c-8.11,0-14.96,6.94-14.96,15.17v150.34c0,8.25,6.53,14.96,14.55,14.96h123.58c4.36,0,8.26-1.94,10.93-4.98,6.07,3.14,13.03,4.87,20.64,4.92h.54c12.95,0,23.53-3.19,31.56-9.47,1.95,5.45,7.15,9.47,13.1,9.47h29.72c1.68,0,3.28-.31,4.77-.87,1.49.56,3.11.87,4.8.87h28.7c7.45,0,13.5-6.06,13.5-13.5v-78.71h20.28c1.69,0,3.3-.33,4.78-.92,1.49.59,3.11.92,4.8.92h22.66c7.23,0,13.11-5.94,13.11-13.23v-61.69c0-7.29-5.94-13.22-13.23-13.22ZM381.9,115.6c.33-.44,1.02-.11.88.42-7.28,29.13-1.48,65.91,21.57,82.69.24.17.07.55-.22.49-23.46-5.09-41.86-57.18-22.24-83.59ZM343.79,156.91l-1.43-3.36,4.03-1.71,1.43,3.36,3.36-1.43,1.71,4.03-3.36,1.43,1.43,3.36-4.03,1.71-1.43-3.36-3.36,1.43-1.71-4.03,3.36-1.43ZM265.91,288.03c-2.99.68-5.87,1.63-8.6,2.85-.89.39-1.76.81-2.62,1.26-.14-3.93-.57-8.39-1.35-13.47-1.26-20.29,19.12-11.9,12.56,9.35ZM165.16,331.23c0-19.14,14.35-32.24,35.76-32.24,1.89,0,3.71.1,5.48.3,13.56,1.5,23.61,8.63,27.94,19.75,1.53,3.93,2.34,8.37,2.34,13.22v34.87c0,19.34-14.35,32.43-35.76,32.43s-35.76-13.3-35.76-32.43v-35.91ZM246.83,452.72c0,1.25-1.03,2.29-2.29,2.29h-123.58c-1.25,0-2.29-1.25-2.29-2.7v-150.34c0-1.25,1.25-2.91,2.7-2.91h34.93c1.25,0,2.29,1.03,2.29,2.29v109.16c0,.84.62,1.46,1.25,1.46h73.07c.99,0,1.78.8,1.78,1.78v1.54c0,12.6,3.54,23.13,9.96,30.05,1.26,1.35,2.18,2.8,2.18,4.64v2.74ZM276.19,454.95c-19.97-.13-33.69-15.59-33.69-39.71v-80.26c0-5.51,1.13-10.94,3.32-15.83,2.23-5,5.55-9.45,9.89-12.89h0c2.08-1.65,4.39-3.06,6.93-4.19,4.19-1.88,9-2.98,14.38-3.06,7.87-.12,13.99,1.37,18.76,3.97h0c1.21.67,2.35,1.4,3.39,2.2,10.74,8.21,12.88,23.16,13.29,35.86.12,3.49.1,6.8.1,9.76,0,9.98,0,12.74-2.49,12.95l-27.24-.05c-1.46.2-2.5-1.25-2.5-2.5v-29.12c0-2.49-1.66-4.16-3.32-4.16-1.46,0-3.33,1.67-3.33,4.16v86.5c0,2.49,1.87,4.15,3.54,4.15,1.45,0,3.11-1.66,3.11-4.15v-17.02c0-1.25.84-2.08,2.29-2.08h27.66c1.45.21,2.28,1.25,2.28,2.5,0,14.14,5.99,53.28-36.38,53ZM390.55,453.7c0,.62-.63,1.25-1.25,1.25h-28.7c-.83,0-1.46-.63-1.46-1.46v-86.08c0-3.12-1.66-4.15-3.32-4.15s-3.32,1.04-3.32,4.15v85.88c0,.83-.63,1.66-1.46,1.66h-29.72c-.84,0-1.67-1.04-1.67-1.87v-151.48c0-1.87.83-2.5,2.29-2.5h29.32c1.46,0,2.08.63,2.08,1.87v34.62c0,1.46.42,1.87.63,1.87s1.04-.41,2.08-1.25c3.54-3.33,8.53-6.03,14.55-6.03,8.74,0,19.97,5.2,19.97,21.42v102.09ZM423.93,361.76c0,.49-.36.97-.85.97h-22.66c-.37,0-.85-.36-.85-.85v-35.51c0-.36-.37-.72-.73-.72-3.15,0-3.51,0-3.51-.85v-24.73c0-.48.49-.97,1.09-.97h26.54c.49,0,.97.48.97.97v61.69ZM456.17,361.76c0,.49-.36.97-.85.97h-22.66c-.37,0-.85-.36-.85-.85v-35.51c0-.36-.36-.72-.73-.72-3.15,0-3.51,0-3.51-.85v-24.73c0-.48.48-.97,1.09-.97h26.54c.49,0,.97.48.97.97v61.69Z"/>
      </g>
      <polygon class="st1" points="455.15 166.67 450.72 173.76 422.7 156.25 455.15 166.67"/>
      <polygon class="st1" points="429.78 123.09 425.19 120.72 415.82 138.89 429.78 123.09"/>
      <polygon class="st1" points="466.93 124.1 469.97 138.31 413.78 150.32 466.93 124.1"/>
    </g>
  </g>
  <g id="primary_green" class="st4">
    <g>
      <g>
        <path class="st3" d="M200.92,365.9c2.29,0,3.33-1.66,3.33-4.16v-25.3c0-2.29-1.25-4.16-3.33-4.16-2.29,0-3.32,1.87-3.32,4.16v25.3c0,2.5,1.04,4.16,3.32,4.16Z"/>
        <path class="st3" d="M454.82,286.88h-26.54c-.98,0-1.94.11-2.86.31-.92-.2-1.86-.31-2.84-.31h-26.54c-7.36,0-13.35,5.93-13.35,13.22v20.22c-4.01-1.58-8.29-2.36-12.49-2.36-1.68,0-3.35.13-5,.4v-17.36c0-8.06-6.16-14.13-14.33-14.13h-15.09c-5.34-20.4-14.82-41.47-12.24-52.63,4.69-17.34,21.04-26.58,45.55-30.16,9.97-1.45,24.72-1.18,39.05-.63,2.51.1,3.67-3.09,1.68-4.63-26.84-20.69-30.34-54.57-22.57-82.89.47-1.7-.24-3.49-1.75-4.39l-3.96-2.35c-1.56-.93-3.57-.54-4.66.91-.75.99-1.47,2.04-3.62,2.75-3.32,1.17-5.55,2.82-5.72,5.35-1.04,10.18-6.19,15.76-14.73,17.56-2.72.49-4.29,1.81-4.76,3.93-.34,2.7-2.52,4.26-5.75,5.19-3.94,1.22-6.85,4.18-8.37,9.49-2.21,8-2.53,15.74-5.6,20.32-1.49,1.43-2.93,2.88-4.33,4.36l-.06.06h0c-2.45,2.59-4.75,5.25-6.91,7.97l-21.88,4.77,15.45,4.17s-.03.04-.04.06l-16.14,7.25,11.47.65c-.1.19-.2.38-.3.57l-11.05,6.74,8.02-.55c-.09.2-.18.4-.27.6l-5.31,5.04,3.63-1.05c-.11.28-.23.56-.34.84-12.18,31.18,17.42,47.42,10.51,73.32-.33,1.17-.7,2.25-1.08,3.26-.83,1.18-1.49,2.5-1.95,3.94-.49-.42-1-.83-1.52-1.23-1.04-.8-2.15-1.55-3.3-2.26l-.12-.12-1.55-.85c-3.61-1.97-7.61-3.41-11.97-4.31-.01-.5-.02-1.01,0-1.53,1.21-14.78.5-25.77-1.65-33.93h0c-1.55-6.34-5.24-13.75-9.43-21.41-.37,1.54-.82,2.97-1.41,4.19-.08-.06-.17-.12-.25-.17-1.3-2.09-2.69-4.21-4.12-6.35-.2,1.34-.46,2.6-.83,3.74-.09-.04-.19-.07-.28-.11-1.38-1.62-2.82-3.26-4.3-4.91,0,1.25-.08,2.45-.25,3.56-.05-.01-.1-.02-.16-.03-1.22-1.33-2.47-2.66-3.76-4,.03,1.17,0,2.29-.11,3.34-.02,0-.03,0-.05,0-1.36-1.06-2.76-2.11-4.19-3.17.21,1.05.36,2.08.43,3.05-.02,0-.04,0-.07,0-1.24-.79-2.51-1.58-3.8-2.38.26.91.49,1.81.64,2.67-.07.01-.14.02-.2.03-1.02-.54-2.06-1.08-3.11-1.62.27.73.52,1.45.72,2.15-17.82,5.06-17.5,31.1-17.52,56.24-.29,4.11-2.26,6.94-4.78,8.51-3.7-2.66-7.89-4.78-12.49-6.29,0-.11,0-.21,0-.32,1.24-18.17,13.89-22.19,4.69-40.48-.18-.36-.6-.53-.99-.43-2.12.54-4.25-.19-5.15-1.91-.82-1.56-.37-3.49.95-4.9.29-.31.35-.78.1-1.13-2.29-3.3-5.15-6.98-8.66-11.14-1.43-1.84-1.72-1.96-.88-4.48h0c.59-1.86-.4-3.89-2.3-4.55-1.76-.6-3.75.26-4.51,1.95-.85,1.9.05,4.11,1.96,4.88.17.07.33.12.5.16.43.1.83.32,1.17.61.38.32.73.65,1.03.99.45.5.73,1.14.81,1.81,1.2,10.27-.69,18.23-5.83,23.74-.51.55-.37,1.43.28,1.8,5.97,3.38,15.71,7.12,14.32,12.14-1.76,4.41-6.92,11.35-9.64,18.79-1.86-.17-3.75-.26-5.66-.26-12.02,0-22.64,3.29-31,9.54-2.06-5.53-7.38-9.48-13.62-9.48h-34.93c-8.11,0-14.96,6.94-14.96,15.17v150.34c0,8.25,6.53,14.96,14.55,14.96h123.58c4.36,0,8.26-1.94,10.93-4.98,6.07,3.14,13.03,4.87,20.64,4.92h.54c12.95,0,23.53-3.19,31.56-9.47,1.95,5.45,7.15,9.47,13.1,9.47h29.72c1.68,0,3.28-.31,4.77-.87,1.49.56,3.11.87,4.8.87h28.7c7.45,0,13.5-6.06,13.5-13.5v-78.71h20.28c1.69,0,3.3-.33,4.78-.92,1.49.59,3.11.92,4.8.92h22.66c7.23,0,13.11-5.94,13.11-13.23v-61.69c0-7.29-5.94-13.22-13.23-13.22ZM381.9,115.6c.33-.44,1.02-.11.88.42-7.28,29.13-1.48,65.91,21.57,82.69.24.17.07.55-.22.49-23.46-5.09-41.86-57.18-22.24-83.59ZM343.79,156.91l-1.43-3.36,4.03-1.71,1.43,3.36,3.36-1.43,1.71,4.03-3.36,1.43,1.43,3.36-4.03,1.71-1.43-3.36-3.36,1.43-1.71-4.03,3.36-1.43ZM265.91,288.03c-2.99.68-5.87,1.63-8.6,2.85-.89.39-1.76.81-2.62,1.26-.14-3.93-.57-8.39-1.35-13.47-1.26-20.29,19.12-11.9,12.56,9.35ZM165.16,331.23c0-19.14,14.35-32.24,35.76-32.24,1.89,0,3.71.1,5.48.3,13.56,1.5,23.61,8.63,27.94,19.75,1.53,3.93,2.34,8.37,2.34,13.22v34.87c0,19.34-14.35,32.43-35.76,32.43s-35.76-13.3-35.76-32.43v-35.91ZM246.83,452.72c0,1.25-1.03,2.29-2.29,2.29h-123.58c-1.25,0-2.29-1.25-2.29-2.7v-150.34c0-1.25,1.25-2.91,2.7-2.91h34.93c1.25,0,2.29,1.03,2.29,2.29v109.16c0,.84.62,1.46,1.25,1.46h73.07c.99,0,1.78.8,1.78,1.78v1.54c0,12.6,3.54,23.13,9.96,30.05,1.26,1.35,2.18,2.8,2.18,4.64v2.74ZM276.19,454.95c-19.97-.13-33.69-15.59-33.69-39.71v-80.26c0-5.51,1.13-10.94,3.32-15.83,2.23-5,5.55-9.45,9.89-12.89h0c2.08-1.65,4.39-3.06,6.93-4.19,4.19-1.88,9-2.98,14.38-3.06,7.87-.12,13.99,1.37,18.76,3.97h0c1.21.67,2.35,1.4,3.39,2.2,10.74,8.21,12.88,23.16,13.29,35.86.12,3.49.1,6.8.1,9.76,0,9.98,0,12.74-2.49,12.95l-27.24-.05c-1.46.2-2.5-1.25-2.5-2.5v-29.12c0-2.49-1.66-4.16-3.32-4.16-1.46,0-3.33,1.67-3.33,4.16v86.5c0,2.49,1.87,4.15,3.54,4.15,1.45,0,3.11-1.66,3.11-4.15v-17.02c0-1.25.84-2.08,2.29-2.08h27.66c1.45.21,2.28,1.25,2.28,2.5,0,14.14,5.99,53.28-36.38,53ZM390.55,453.7c0,.62-.63,1.25-1.25,1.25h-28.7c-.83,0-1.46-.63-1.46-1.46v-86.08c0-3.12-1.66-4.15-3.32-4.15s-3.32,1.04-3.32,4.15v85.88c0,.83-.63,1.66-1.46,1.66h-29.72c-.84,0-1.67-1.04-1.67-1.87v-151.48c0-1.87.83-2.5,2.29-2.5h29.32c1.46,0,2.08.63,2.08,1.87v34.62c0,1.46.42,1.87.63,1.87s1.04-.41,2.08-1.25c3.54-3.33,8.53-6.03,14.55-6.03,8.74,0,19.97,5.2,19.97,21.42v102.09ZM423.93,361.76c0,.49-.36.97-.85.97h-22.66c-.37,0-.85-.36-.85-.85v-35.51c0-.36-.37-.72-.73-.72-3.15,0-3.51,0-3.51-.85v-24.73c0-.48.49-.97,1.09-.97h26.54c.49,0,.97.48.97.97v61.69ZM456.17,361.76c0,.49-.36.97-.85.97h-22.66c-.37,0-.85-.36-.85-.85v-35.51c0-.36-.36-.72-.73-.72-3.15,0-3.51,0-3.51-.85v-24.73c0-.48.48-.97,1.09-.97h26.54c.49,0,.97.48.97.97v61.69Z"/>
      </g>
      <polygon class="st3" points="455.15 166.67 450.72 173.76 422.7 156.25 455.15 166.67"/>
      <polygon class="st3" points="429.78 123.09 425.19 120.72 415.82 138.89 429.78 123.09"/>
      <polygon class="st3" points="466.93 124.1 469.97 138.31 413.78 150.32 466.93 124.1"/>
    </g>
  </g>
  <g id="primary_white" class="st4">
    <g>
      <g>
        <path class="st2" d="M200.92,365.9c2.29,0,3.33-1.66,3.33-4.16v-25.3c0-2.29-1.25-4.16-3.33-4.16-2.29,0-3.32,1.87-3.32,4.16v25.3c0,2.5,1.04,4.16,3.32,4.16Z"/>
        <path class="st2" d="M454.82,286.88h-26.54c-.98,0-1.94.11-2.86.31-.92-.2-1.86-.31-2.84-.31h-26.54c-7.36,0-13.35,5.93-13.35,13.22v20.22c-4.01-1.58-8.29-2.36-12.49-2.36-1.68,0-3.35.13-5,.4v-17.36c0-8.06-6.16-14.13-14.33-14.13h-15.09c-5.34-20.4-14.82-41.47-12.24-52.63,4.69-17.34,21.04-26.58,45.55-30.16,9.97-1.45,24.72-1.18,39.05-.63,2.51.1,3.67-3.09,1.68-4.63-26.84-20.69-30.34-54.57-22.57-82.89.47-1.7-.24-3.49-1.75-4.39l-3.96-2.35c-1.56-.93-3.57-.54-4.66.91-.75.99-1.47,2.04-3.62,2.75-3.32,1.17-5.55,2.82-5.72,5.35-1.04,10.18-6.19,15.76-14.73,17.56-2.72.49-4.29,1.81-4.76,3.93-.34,2.7-2.52,4.26-5.75,5.19-3.94,1.22-6.85,4.18-8.37,9.49-2.21,8-2.53,15.74-5.6,20.32-1.49,1.43-2.93,2.88-4.33,4.36l-.06.06h0c-2.45,2.59-4.75,5.25-6.91,7.97l-21.88,4.77,15.45,4.17s-.03.04-.04.06l-16.14,7.25,11.47.65c-.1.19-.2.38-.3.57l-11.05,6.74,8.02-.55c-.09.2-.18.4-.27.6l-5.31,5.04,3.63-1.05c-.11.28-.23.56-.34.84-12.18,31.18,17.42,47.42,10.51,73.32-.33,1.17-.7,2.25-1.08,3.26-.83,1.18-1.49,2.5-1.95,3.94-.49-.42-1-.83-1.52-1.23-1.04-.8-2.15-1.55-3.3-2.26l-.12-.12-1.55-.85c-3.61-1.97-7.61-3.41-11.97-4.31-.01-.5-.02-1.01,0-1.53,1.21-14.78.5-25.77-1.65-33.93h0c-1.55-6.34-5.24-13.75-9.43-21.41-.37,1.54-.82,2.97-1.41,4.19-.08-.06-.17-.12-.25-.17-1.3-2.09-2.69-4.21-4.12-6.35-.2,1.34-.46,2.6-.83,3.74-.09-.04-.19-.07-.28-.11-1.38-1.62-2.82-3.26-4.3-4.91,0,1.25-.08,2.45-.25,3.56-.05-.01-.1-.02-.16-.03-1.22-1.33-2.47-2.66-3.76-4,.03,1.17,0,2.29-.11,3.34-.02,0-.03,0-.05,0-1.36-1.06-2.76-2.11-4.19-3.17.21,1.05.36,2.08.43,3.05-.02,0-.04,0-.07,0-1.24-.79-2.51-1.58-3.8-2.38.26.91.49,1.81.64,2.67-.07.01-.14.02-.2.03-1.02-.54-2.06-1.08-3.11-1.62.27.73.52,1.45.72,2.15-17.82,5.06-17.5,31.1-17.52,56.24-.29,4.11-2.26,6.94-4.78,8.51-3.7-2.66-7.89-4.78-12.49-6.29,0-.11,0-.21,0-.32,1.24-18.17,13.89-22.19,4.69-40.48-.18-.36-.6-.53-.99-.43-2.12.54-4.25-.19-5.15-1.91-.82-1.56-.37-3.49.95-4.9.29-.31.35-.78.1-1.13-2.29-3.3-5.15-6.98-8.66-11.14-1.43-1.84-1.72-1.96-.88-4.48h0c.59-1.86-.4-3.89-2.3-4.55-1.76-.6-3.75.26-4.51,1.95-.85,1.9.05,4.11,1.96,4.88.17.07.33.12.5.16.43.1.83.32,1.17.61.38.32.73.65,1.03.99.45.5.73,1.14.81,1.81,1.2,10.27-.69,18.23-5.83,23.74-.51.55-.37,1.43.28,1.8,5.97,3.38,15.71,7.12,14.32,12.14-1.76,4.41-6.92,11.35-9.64,18.79-1.86-.17-3.75-.26-5.66-.26-12.02,0-22.64,3.29-31,9.54-2.06-5.53-7.38-9.48-13.62-9.48h-34.93c-8.11,0-14.96,6.94-14.96,15.17v150.34c0,8.25,6.53,14.96,14.55,14.96h123.58c4.36,0,8.26-1.94,10.93-4.98,6.07,3.14,13.03,4.87,20.64,4.92h.54c12.95,0,23.53-3.19,31.56-9.47,1.95,5.45,7.15,9.47,13.1,9.47h29.72c1.68,0,3.28-.31,4.77-.87,1.49.56,3.11.87,4.8.87h28.7c7.45,0,13.5-6.06,13.5-13.5v-78.71h20.28c1.69,0,3.3-.33,4.78-.92,1.49.59,3.11.92,4.8.92h22.66c7.23,0,13.11-5.94,13.11-13.23v-61.69c0-7.29-5.94-13.22-13.23-13.22ZM381.9,115.6c.33-.44,1.02-.11.88.42-7.28,29.13-1.48,65.91,21.57,82.69.24.17.07.55-.22.49-23.46-5.09-41.86-57.18-22.24-83.59ZM343.79,156.91l-1.43-3.36,4.03-1.71,1.43,3.36,3.36-1.43,1.71,4.03-3.36,1.43,1.43,3.36-4.03,1.71-1.43-3.36-3.36,1.43-1.71-4.03,3.36-1.43ZM265.91,288.03c-2.99.68-5.87,1.63-8.6,2.85-.89.39-1.76.81-2.62,1.26-.14-3.93-.57-8.39-1.35-13.47-1.26-20.29,19.12-11.9,12.56,9.35ZM165.16,331.23c0-19.14,14.35-32.24,35.76-32.24,1.89,0,3.71.1,5.48.3,13.56,1.5,23.61,8.63,27.94,19.75,1.53,3.93,2.34,8.37,2.34,13.22v34.87c0,19.34-14.35,32.43-35.76,32.43s-35.76-13.3-35.76-32.43v-35.91ZM246.83,452.72c0,1.25-1.03,2.29-2.29,2.29h-123.58c-1.25,0-2.29-1.25-2.29-2.7v-150.34c0-1.25,1.25-2.91,2.7-2.91h34.93c1.25,0,2.29,1.03,2.29,2.29v109.16c0,.84.62,1.46,1.25,1.46h73.07c.99,0,1.78.8,1.78,1.78v1.54c0,12.6,3.54,23.13,9.96,30.05,1.26,1.35,2.18,2.8,2.18,4.64v2.74ZM276.19,454.95c-19.97-.13-33.69-15.59-33.69-39.71v-80.26c0-5.51,1.13-10.94,3.32-15.83,2.23-5,5.55-9.45,9.89-12.89h0c2.08-1.65,4.39-3.06,6.93-4.19,4.19-1.88,9-2.98,14.38-3.06,7.87-.12,13.99,1.37,18.76,3.97h0c1.21.67,2.35,1.4,3.39,2.2,10.74,8.21,12.88,23.16,13.29,35.86.12,3.49.1,6.8.1,9.76,0,9.98,0,12.74-2.49,12.95l-27.24-.05c-1.46.2-2.5-1.25-2.5-2.5v-29.12c0-2.49-1.66-4.16-3.32-4.16-1.46,0-3.33,1.67-3.33,4.16v86.5c0,2.49,1.87,4.15,3.54,4.15,1.45,0,3.11-1.66,3.11-4.15v-17.02c0-1.25.84-2.08,2.29-2.08h27.66c1.45.21,2.28,1.25,2.28,2.5,0,14.14,5.99,53.28-36.38,53ZM390.55,453.7c0,.62-.63,1.25-1.25,1.25h-28.7c-.83,0-1.46-.63-1.46-1.46v-86.08c0-3.12-1.66-4.15-3.32-4.15s-3.32,1.04-3.32,4.15v85.88c0,.83-.63,1.66-1.46,1.66h-29.72c-.84,0-1.67-1.04-1.67-1.87v-151.48c0-1.87.83-2.5,2.29-2.5h29.32c1.46,0,2.08.63,2.08,1.87v34.62c0,1.46.42,1.87.63,1.87s1.04-.41,2.08-1.25c3.54-3.33,8.53-6.03,14.55-6.03,8.74,0,19.97,5.2,19.97,21.42v102.09ZM423.93,361.76c0,.49-.36.97-.85.97h-22.66c-.37,0-.85-.36-.85-.85v-35.51c0-.36-.37-.72-.73-.72-3.15,0-3.51,0-3.51-.85v-24.73c0-.48.49-.97,1.09-.97h26.54c.49,0,.97.48.97.97v61.69ZM456.17,361.76c0,.49-.36.97-.85.97h-22.66c-.37,0-.85-.36-.85-.85v-35.51c0-.36-.36-.72-.73-.72-3.15,0-3.51,0-3.51-.85v-24.73c0-.48.48-.97,1.09-.97h26.54c.49,0,.97.48.97.97v61.69Z"/>
      </g>
      <polygon class="st2" points="455.15 166.67 450.72 173.76 422.7 156.25 455.15 166.67"/>
      <polygon class="st2" points="429.78 123.09 425.19 120.72 415.82 138.89 429.78 123.09"/>
      <polygon class="st2" points="466.93 124.1 469.97 138.31 413.78 150.32 466.93 124.1"/>
    </g>
  </g>
  <g id="wordmark_blue">
    <path class="st0" d="M489.84,202.22v68.78c0,8.14-6.56,14.76-14.62,14.76h-25.27c-1.89,0-3.7-.38-5.36-1.03-1.65.65-3.44,1.03-5.32,1.03h-22.61v87.77c0,8.3-6.76,15.05-15.06,15.05h-32c-1.88,0-3.68-.34-5.35-.96-1.66.62-3.45.96-5.32.96h-33.14c-6.63,0-12.44-4.48-14.61-10.55-8.95,7-20.75,10.55-35.19,10.55h-.61c-8.47-.05-16.23-1.98-23.01-5.48-2.97,3.39-7.33,5.55-12.19,5.55H102.38c-8.94,0-16.22-7.48-16.22-16.68v-167.64c0-9.16,7.64-16.91,16.69-16.91h38.95c6.95,0,12.88,4.41,15.18,10.57,9.32-6.97,21.17-10.63,34.57-10.63,2.57,0,5.14.14,7.63.41,15.46,1.71,28.14,8.66,36.25,19.56,1.11-1.46,2.29-2.86,3.55-4.19v-.65l5.19-4.11c3.27-2.59,6.87-4.75,10.68-6.44,6.48-2.91,13.68-4.46,21.33-4.58.41-.01.79-.01,1.17-.01,10.18,0,19.1,2.05,26.52,6.1l1.73.95.13.13c1.29.78,2.52,1.62,3.68,2.52.59.44,1.15.9,1.7,1.36,2.08-6.57,7.91-10.94,15.37-10.94h32.69c9.11,0,15.98,6.77,15.98,15.76v19.35c1.84-.29,3.7-.44,5.58-.44,4.67,0,9.44.87,13.92,2.63v-22.55c0-8.13,6.67-14.75,14.88-14.75h29.6c1.09,0,2.14.13,3.16.35,1.03-.22,2.1-.35,3.19-.35h29.6c8.14,0,14.76,6.62,14.76,14.75Z"/>
    <g>
      <path class="st3" d="M191.97,275.58c2.55,0,3.71-1.85,3.71-4.64v-28.22c0-2.55-1.4-4.64-3.71-4.64-2.55,0-3.71,2.09-3.71,4.64v28.22c0,2.79,1.15,4.64,3.71,4.64Z"/>
      <path class="st3" d="M475.08,187.47h-29.6c-1.09,0-2.16.13-3.19.35-1.02-.22-2.07-.35-3.16-.35h-29.6c-8.21,0-14.88,6.62-14.88,14.75v22.55c-4.48-1.76-9.25-2.63-13.92-2.63-1.88,0-3.74.15-5.58.44v-19.35c0-8.99-6.87-15.76-15.98-15.76h-32.69c-7.46,0-13.29,4.37-15.37,10.94-.55-.46-1.11-.92-1.7-1.36-1.16-.9-2.39-1.74-3.68-2.52l-.13-.13-1.73-.95c-7.42-4.05-16.34-6.1-26.52-6.1-.38,0-.76,0-1.17.01-7.65.12-14.85,1.67-21.33,4.58-3.81,1.69-7.41,3.85-10.68,6.44l-5.19,4.11v.65c-1.26,1.33-2.44,2.73-3.55,4.19-8.11-10.9-20.79-17.85-36.25-19.56-2.49-.27-5.06-.41-7.63-.41-13.4,0-25.25,3.66-34.57,10.63-2.3-6.16-8.23-10.57-15.18-10.57h-38.95c-9.05,0-16.69,7.75-16.69,16.91v167.64c0,9.2,7.28,16.68,16.22,16.68h137.8c4.86,0,9.22-2.16,12.19-5.55,6.78,3.5,14.54,5.43,23.01,5.48h.61c14.44,0,26.24-3.55,35.19-10.55,2.17,6.07,7.98,10.55,14.61,10.55h33.14c1.87,0,3.66-.34,5.32-.96,1.67.62,3.47.96,5.35.96h32c8.3,0,15.06-6.75,15.06-15.05v-87.77h22.61c1.88,0,3.67-.38,5.32-1.03,1.66.65,3.47,1.03,5.36,1.03h25.27c8.06,0,14.62-6.62,14.62-14.76v-68.78c0-8.13-6.62-14.75-14.76-14.75ZM152.09,236.93c0-21.33,16-35.94,39.88-35.94,2.11,0,4.14.11,6.12.33,15.11,1.67,26.32,9.63,31.15,22.03,1.71,4.38,2.61,9.33,2.61,14.74v38.88c0,21.57-16,36.17-39.88,36.17s-39.88-14.83-39.88-36.17v-40.04ZM243.16,372.39c0,1.4-1.15,2.56-2.55,2.56H102.81c-1.39,0-2.55-1.4-2.55-3.02v-167.63c0-1.39,1.39-3.25,3.01-3.25h38.95c1.4,0,2.55,1.15,2.55,2.56v121.71c0,.94.69,1.63,1.39,1.63h81.48c1.1,0,1.99.89,1.99,1.99v1.71c0,14.05,3.95,25.8,11.1,33.51,1.4,1.51,2.43,3.12,2.43,5.17v3.06ZM275.9,374.88c-22.26-.15-37.56-17.39-37.56-44.29v-89.49c0-6.14,1.26-12.19,3.7-17.65,2.49-5.58,6.19-10.54,11.03-14.38,2.31-1.83,4.9-3.41,7.73-4.67,4.67-2.09,10.03-3.32,16.03-3.41,8.77-.13,15.6,1.52,20.92,4.42h0c1.36.75,2.62,1.57,3.78,2.46,11.98,9.15,14.36,25.82,14.83,39.98.13,3.89.11,7.58.11,10.88,0,11.13,0,14.21-2.78,14.44l-30.37-.06c-1.63.23-2.79-1.39-2.79-2.78v-32.47c0-2.78-1.85-4.64-3.7-4.64-1.63,0-3.72,1.86-3.72,4.64v96.45c0,2.78,2.09,4.63,3.95,4.63,1.62,0,3.47-1.85,3.47-4.63v-18.99c0-1.39.94-2.32,2.55-2.32h30.85c1.61.23,2.54,1.39,2.54,2.78,0,15.77,6.68,59.42-40.57,59.1ZM403.41,373.49c0,.69-.7,1.39-1.39,1.39h-31.99c-.93,0-1.63-.7-1.63-1.63v-95.98c0-3.48-1.85-4.63-3.71-4.63s-3.7,1.15-3.7,4.63v95.75c0,.93-.7,1.86-1.63,1.86h-33.15c-.93,0-1.86-1.16-1.86-2.08v-168.91c0-2.09.93-2.79,2.55-2.79h32.69c1.63,0,2.32.7,2.32,2.09v38.6c0,1.63.46,2.09.7,2.09s1.16-.46,2.31-1.39c3.95-3.71,9.51-6.72,16.23-6.72,9.75,0,22.26,5.79,22.26,23.88v113.84ZM440.64,270.97c0,.54-.4,1.08-.95,1.08h-25.27c-.41,0-.95-.4-.95-.95v-39.6c0-.4-.41-.8-.81-.8-3.51,0-3.92,0-3.92-.95v-27.57c0-.54.55-1.08,1.21-1.08h29.6c.55,0,1.09.54,1.09,1.08v68.79ZM476.59,270.97c0,.54-.4,1.08-.95,1.08h-25.27c-.41,0-.95-.4-.95-.95v-39.6c0-.4-.4-.8-.81-.8-3.52,0-3.92,0-3.92-.95v-27.57c0-.54.54-1.08,1.22-1.08h29.6c.54,0,1.08.54,1.08,1.08v68.79Z"/>
    </g>
  </g>
  <g id="wordmark_green" class="st4">
    <g>
      <path class="st3" d="M191.97,275.58c2.55,0,3.71-1.85,3.71-4.64v-28.22c0-2.55-1.4-4.64-3.71-4.64-2.55,0-3.71,2.09-3.71,4.64v28.22c0,2.79,1.15,4.64,3.71,4.64Z"/>
      <path class="st3" d="M475.08,187.47h-29.6c-1.1,0-2.16.13-3.19.35-1.02-.22-2.08-.35-3.16-.35h-29.6c-8.21,0-14.88,6.62-14.88,14.75v22.55c-4.48-1.76-9.25-2.63-13.92-2.63-1.87,0-3.74.15-5.57.44v-19.36c0-8.98-6.87-15.76-15.98-15.76h-32.69c-7.46,0-13.29,4.37-15.37,10.94-.55-.47-1.11-.92-1.69-1.37-1.16-.89-2.4-1.73-3.68-2.52l-.13-.13-1.73-.94c-7.42-4.05-16.34-6.1-26.52-6.1-.38,0-.76,0-1.17,0-7.65.13-14.85,1.68-21.33,4.58-3.81,1.69-7.4,3.85-10.68,6.44l-5.19,4.11v.65c-1.26,1.32-2.43,2.73-3.55,4.19-8.11-10.9-20.78-17.85-36.25-19.56-2.49-.28-5.05-.42-7.63-.42-13.4,0-25.25,3.67-34.57,10.64-2.3-6.16-8.23-10.57-15.18-10.57h-38.95c-9.04,0-16.68,7.74-16.68,16.91v167.63c0,9.2,7.28,16.68,16.22,16.68h137.8c4.86,0,9.22-2.16,12.19-5.56,6.77,3.5,14.53,5.43,23.01,5.49h.61c14.44,0,26.24-3.55,35.19-10.56,2.17,6.07,7.98,10.56,14.61,10.56h33.14c1.87,0,3.66-.34,5.32-.97,1.67.62,3.47.97,5.35.97h32c8.3,0,15.06-6.75,15.06-15.06v-87.77h22.61c1.88,0,3.68-.37,5.33-1.03,1.66.66,3.46,1.03,5.35,1.03h25.27c8.06,0,14.62-6.62,14.62-14.75v-68.79c0-8.13-6.62-14.75-14.75-14.75ZM152.09,236.93c0-21.34,16-35.95,39.88-35.95,2.1,0,4.14.11,6.11.33,15.12,1.67,26.33,9.63,31.15,22.03,1.71,4.38,2.61,9.33,2.61,14.74v38.88c0,21.56-16,36.17-39.88,36.17s-39.88-14.83-39.88-36.17v-40.04ZM243.16,372.39c0,1.4-1.15,2.55-2.55,2.55H102.81c-1.39,0-2.55-1.4-2.55-3.01v-167.63c0-1.39,1.4-3.24,3.01-3.24h38.95c1.4,0,2.55,1.15,2.55,2.55v121.72c0,.93.69,1.62,1.39,1.62h81.47c1.1,0,1.99.89,1.99,1.99v1.72c0,14.05,3.95,25.79,11.1,33.51,1.4,1.5,2.43,3.12,2.43,5.17v3.06ZM275.9,374.88c-22.26-.14-37.56-17.39-37.56-44.28v-89.49c0-6.14,1.26-12.19,3.71-17.65,2.48-5.57,6.19-10.54,11.03-14.37h0c2.32-1.84,4.9-3.42,7.73-4.67,4.68-2.1,10.03-3.32,16.03-3.42,8.77-.13,15.6,1.53,20.92,4.43h0c1.35.74,2.62,1.56,3.78,2.45,11.97,9.16,14.36,25.82,14.82,39.99.13,3.89.11,7.58.11,10.88,0,11.13,0,14.21-2.78,14.44l-30.37-.06c-1.62.23-2.79-1.4-2.79-2.79v-32.47c0-2.78-1.85-4.64-3.71-4.64-1.62,0-3.71,1.86-3.71,4.64v96.45c0,2.78,2.09,4.63,3.95,4.63,1.62,0,3.47-1.85,3.47-4.63v-18.98c0-1.4.93-2.32,2.55-2.32h30.84c1.62.23,2.54,1.39,2.54,2.78,0,15.76,6.68,59.41-40.57,59.09ZM403.41,373.49c0,.69-.7,1.39-1.39,1.39h-32c-.93,0-1.62-.7-1.62-1.62v-95.99c0-3.48-1.85-4.63-3.71-4.63s-3.71,1.15-3.71,4.63v95.76c0,.93-.7,1.85-1.63,1.85h-33.14c-.93,0-1.86-1.16-1.86-2.08v-168.91c0-2.09.93-2.79,2.55-2.79h32.69c1.62,0,2.32.7,2.32,2.09v38.6c0,1.63.46,2.09.7,2.09s1.16-.46,2.32-1.39c3.95-3.71,9.51-6.72,16.23-6.72,9.75,0,22.26,5.79,22.26,23.88v113.84ZM440.64,270.97c0,.55-.4,1.09-.95,1.09h-25.27c-.41,0-.95-.4-.95-.95v-39.6c0-.4-.41-.8-.81-.8-3.51,0-3.92,0-3.92-.95v-27.57c0-.54.55-1.08,1.21-1.08h29.6c.55,0,1.09.54,1.09,1.08v68.79ZM476.59,270.97c0,.55-.4,1.09-.95,1.09h-25.27c-.41,0-.95-.4-.95-.95v-39.6c0-.4-.4-.8-.81-.8-3.52,0-3.92,0-3.92-.95v-27.57c0-.54.54-1.08,1.21-1.08h29.6c.55,0,1.09.54,1.09,1.08v68.79Z"/>
    </g>
  </g>
  <g id="wordmark_white" class="st4">
    <g>
      <path class="st2" d="M191.97,275.58c2.55,0,3.71-1.85,3.71-4.64v-28.22c0-2.55-1.4-4.64-3.71-4.64-2.55,0-3.71,2.09-3.71,4.64v28.22c0,2.79,1.15,4.64,3.71,4.64Z"/>
      <path class="st2" d="M475.08,187.47h-29.6c-1.1,0-2.16.13-3.19.35-1.02-.22-2.08-.35-3.16-.35h-29.6c-8.21,0-14.88,6.62-14.88,14.75v22.55c-4.48-1.76-9.25-2.63-13.92-2.63-1.87,0-3.74.15-5.57.44v-19.36c0-8.98-6.87-15.76-15.98-15.76h-32.69c-7.46,0-13.29,4.37-15.37,10.94-.55-.47-1.11-.92-1.69-1.37-1.16-.89-2.4-1.73-3.68-2.52l-.13-.13-1.73-.94c-7.42-4.05-16.34-6.1-26.52-6.1-.38,0-.76,0-1.17,0-7.65.13-14.85,1.68-21.33,4.58-3.81,1.69-7.4,3.85-10.68,6.44l-5.19,4.11v.65c-1.26,1.32-2.43,2.73-3.55,4.19-8.11-10.9-20.78-17.85-36.25-19.56-2.49-.28-5.05-.42-7.63-.42-13.4,0-25.25,3.67-34.57,10.64-2.3-6.16-8.23-10.57-15.18-10.57h-38.95c-9.04,0-16.68,7.74-16.68,16.91v167.63c0,9.2,7.28,16.68,16.22,16.68h137.8c4.86,0,9.22-2.16,12.19-5.56,6.77,3.5,14.53,5.43,23.01,5.49h.61c14.44,0,26.24-3.55,35.19-10.56,2.17,6.07,7.98,10.56,14.61,10.56h33.14c1.87,0,3.66-.34,5.32-.97,1.67.62,3.47.97,5.35.97h32c8.3,0,15.06-6.75,15.06-15.06v-87.77h22.61c1.88,0,3.68-.37,5.33-1.03,1.66.66,3.46,1.03,5.35,1.03h25.27c8.06,0,14.62-6.62,14.62-14.75v-68.79c0-8.13-6.62-14.75-14.75-14.75ZM152.09,236.93c0-21.34,16-35.95,39.88-35.95,2.1,0,4.14.11,6.11.33,15.12,1.67,26.33,9.63,31.15,22.03,1.71,4.38,2.61,9.33,2.61,14.74v38.88c0,21.56-16,36.17-39.88,36.17s-39.88-14.83-39.88-36.17v-40.04ZM243.16,372.39c0,1.4-1.15,2.55-2.55,2.55H102.81c-1.39,0-2.55-1.4-2.55-3.01v-167.63c0-1.39,1.4-3.24,3.01-3.24h38.95c1.4,0,2.55,1.15,2.55,2.55v121.72c0,.93.69,1.62,1.39,1.62h81.47c1.1,0,1.99.89,1.99,1.99v1.72c0,14.05,3.95,25.79,11.1,33.51,1.4,1.5,2.43,3.12,2.43,5.17v3.06ZM275.9,374.88c-22.26-.14-37.56-17.39-37.56-44.28v-89.49c0-6.14,1.26-12.19,3.71-17.65,2.48-5.57,6.19-10.54,11.03-14.37h0c2.32-1.84,4.9-3.42,7.73-4.67,4.68-2.1,10.03-3.32,16.03-3.42,8.77-.13,15.6,1.53,20.92,4.43h0c1.35.74,2.62,1.56,3.78,2.45,11.97,9.16,14.36,25.82,14.82,39.99.13,3.89.11,7.58.11,10.88,0,11.13,0,14.21-2.78,14.44l-30.37-.06c-1.62.23-2.79-1.4-2.79-2.79v-32.47c0-2.78-1.85-4.64-3.71-4.64-1.62,0-3.71,1.86-3.71,4.64v96.45c0,2.78,2.09,4.63,3.95,4.63,1.62,0,3.47-1.85,3.47-4.63v-18.98c0-1.4.93-2.32,2.55-2.32h30.84c1.62.23,2.54,1.39,2.54,2.78,0,15.76,6.68,59.41-40.57,59.09ZM403.41,373.49c0,.69-.7,1.39-1.39,1.39h-32c-.93,0-1.62-.7-1.62-1.62v-95.99c0-3.48-1.85-4.63-3.71-4.63s-3.71,1.15-3.71,4.63v95.76c0,.93-.7,1.85-1.63,1.85h-33.14c-.93,0-1.86-1.16-1.86-2.08v-168.91c0-2.09.93-2.79,2.55-2.79h32.69c1.62,0,2.32.7,2.32,2.09v38.6c0,1.63.46,2.09.7,2.09s1.16-.46,2.32-1.39c3.95-3.71,9.51-6.72,16.23-6.72,9.75,0,22.26,5.79,22.26,23.88v113.84ZM440.64,270.97c0,.55-.4,1.09-.95,1.09h-25.27c-.41,0-.95-.4-.95-.95v-39.6c0-.4-.41-.8-.81-.8-3.51,0-3.92,0-3.92-.95v-27.57c0-.54.55-1.08,1.21-1.08h29.6c.55,0,1.09.54,1.09,1.08v68.79ZM476.59,270.97c0,.55-.4,1.09-.95,1.09h-25.27c-.41,0-.95-.4-.95-.95v-39.6c0-.4-.4-.8-.81-.8-3.52,0-3.92,0-3.92-.95v-27.57c0-.54.54-1.08,1.21-1.08h29.6c.55,0,1.09.54,1.09,1.08v68.79Z"/>
    </g>
  </g>
  <g id="serpent_blue" class="st4">
    <g>
      <path class="st1" d="M358.36,274.98c-36.41-10.2-54.17-43.78-57.95-76.32-.23-1.95-1.71-3.51-3.65-3.81l-5.07-.78c-2-.31-3.92.93-4.44,2.89-.36,1.34-.67,2.72-2.6,4.36-2.95,2.6-4.56,5.23-3.68,7.92,3.18,10.97.18,18.89-7.9,24.31-2.61,1.64-3.68,3.67-3.28,6.05.78,2.93-.83,5.46-3.79,7.77-3.57,2.9-5.34,7.18-4.7,13.31,1.05,9.19,3.95,17.34,2.69,23.36-.94,2.1-1.83,4.21-2.66,6.31l-.04.09h0c-1.45,3.7-2.72,7.41-3.82,11.13l-20.64,14.07,17.72-2.13s-.01.05-.02.08l-13.67,14.23,12.14-4.11c-.03.24-.05.47-.07.71l-8.62,11.58,8.06-3.92c0,.24-.02.49-.03.73l-3.39,7.43,3.32-2.6c0,.34,0,.68,0,1.01.42,37.34,37.82,41.78,41.48,71.46,2.65,25.35-15.88,25.73-23.53,5.77-4.92-15.79-10.24-26.87-15.87-34.4h0c-4.25-5.91-11.16-12.04-18.7-18.21.26,1.74.39,3.41.29,4.93-.11-.03-.22-.05-.33-.08-2.22-1.62-4.54-3.23-6.91-4.85.35,1.47.61,2.88.7,4.21-.11,0-.23,0-.34,0-2.1-1.11-4.28-2.2-6.5-3.29.51,1.3.94,2.57,1.22,3.78-.06,0-.12.02-.18.03-1.81-.86-3.67-1.72-5.56-2.57.52,1.2.96,2.37,1.28,3.5-.02,0-.04.01-.06.02-1.85-.52-3.74-1.03-5.66-1.53.65,1,1.24,2,1.72,2.98-.02,0-.05.02-.07.03-1.62-.3-3.26-.59-4.92-.87.66.83,1.26,1.67,1.78,2.5-.06.04-.13.08-.2.12-1.28-.13-2.58-.26-3.89-.38.59.64,1.14,1.28,1.64,1.93-16.32,12.67-5.12,39.47,5.36,65.49,4.36,13.43-12.76,21.15-17.07,9.18-6.31-19.31,5.11-28.75-12.05-43.83-.34-.3-.84-.3-1.2-.03-1.96,1.44-4.48,1.58-6.13.17-1.5-1.28-1.85-3.46-1.07-5.47.17-.45.04-.95-.36-1.21-3.75-2.46-8.24-5.07-13.6-7.91-2.24-1.3-2.6-1.31-2.79-4.27h0c-.17-2.17-2.04-3.86-4.27-3.74-2.07.11-3.77,1.83-3.85,3.9-.09,2.32,1.77,4.23,4.07,4.23.2,0,.4-.02.59-.04.49-.07,1-.01,1.47.14.53.18,1.02.37,1.47.59.68.33,1.23.88,1.59,1.54,5.53,10.12,6.9,19.14,3.88,26.99-.3.78.22,1.63,1.04,1.74,7.58,1,19.22.8,19.88,6.57.05,12.1-12.73,45.25,23.48,45.25,19.36-.41,48.16-1.99,19.67-50.12-10.68-22.34,19.64-20.1,16.86,11.9-2.84,31.59,24.18,42.57,62.02,29.42,67.95-33.55-20.36-88.23-24.83-116.59-2.39-19.9,10.66-36.28,34.53-50.21,9.71-5.66,25.07-11.54,40.13-16.95,2.64-.95,2.51-4.73-.19-5.49ZM282.33,262.06l-3.45,3.45-2.88-2.88-2.88,2.88-3.45-3.45,2.88-2.88-2.88-2.88,3.45-3.45,2.88,2.88,2.88-2.88,3.45,3.45-2.88,2.88,2.88,2.88ZM352.63,277.72c-26.4,4.53-67.17-41.67-57.91-77.18.15-.59,1.01-.54,1.09.07,4.63,33.18,25.99,68.8,56.84,76.53.31.08.3.54-.02.59Z"/>
      <polygon class="st1" points="380.57 228.79 380.88 237.86 345.03 239.08 380.57 228.79"/>
      <polygon class="st1" points="331.31 204.92 325.73 205.57 328.32 227.62 331.31 204.92"/>
      <path class="st1" d="M386.72,102.97h-25.76c-20.21,0-36.59,16.38-36.59,36.59v25.76c0,18.97,14.44,34.57,32.93,36.4l-.08.18-19.67,28.85c-.58.85.37,1.9,1.28,1.41l52.55-28.63c3.03-1.65,6.17-3.09,9.36-4.41,13.25-5.5,22.56-18.56,22.56-33.8v-25.76c0-20.21-16.38-36.59-36.59-36.59ZM361.31,173.58c0,.38-.38.75-.85.75h-20.65c-.38,0-.76-.38-.76-.75v-47.98c0-.38.28-.76.66-.76h17.63c.29,0,.66.28.66.66v27.62c0,.28.29.56.57.56,2.45,0,2.73,0,2.73.66v19.23ZM383.56,173.58c0,.38-.28.76-.66.76h-17.63c-.29,0-.66-.28-.66-.66v-27.62c0-.28-.29-.56-.57-.56-2.45,0-2.73,0-2.73-.66v-19.23c0-.38.38-.75.85-.75h20.65c.38,0,.76.38.76.75v47.98ZM408.63,173.58c0,.38-.28.76-.66.76h-17.63c-.29,0-.66-.28-.66-.66v-27.62c0-.28-.28-.56-.57-.56-2.45,0-2.73,0-2.73-.66v-19.23c0-.38.38-.75.85-.75h20.65c.38,0,.76.38.76.75v47.98Z"/>
    </g>
  </g>
  <g id="serpent_green" class="st4">
    <g>
      <path class="st3" d="M358.36,274.98c-36.41-10.2-54.17-43.78-57.95-76.32-.23-1.95-1.71-3.51-3.65-3.81l-5.07-.78c-2-.31-3.92.93-4.44,2.89-.36,1.34-.67,2.72-2.6,4.36-2.95,2.6-4.56,5.23-3.68,7.92,3.18,10.97.18,18.89-7.9,24.31-2.61,1.64-3.68,3.67-3.28,6.05.78,2.93-.83,5.46-3.79,7.77-3.57,2.9-5.34,7.18-4.7,13.31,1.05,9.19,3.95,17.34,2.69,23.36-.94,2.1-1.83,4.21-2.66,6.31l-.04.09h0c-1.45,3.7-2.72,7.41-3.82,11.13l-20.64,14.07,17.72-2.13s-.01.05-.02.08l-13.67,14.23,12.14-4.11c-.03.24-.05.47-.07.71l-8.62,11.58,8.06-3.92c0,.24-.02.49-.03.73l-3.39,7.43,3.32-2.6c0,.34,0,.68,0,1.01.42,37.34,37.82,41.78,41.48,71.46,2.65,25.35-15.88,25.73-23.53,5.77-4.92-15.79-10.24-26.87-15.87-34.4h0c-4.25-5.91-11.16-12.04-18.7-18.21.26,1.74.39,3.41.29,4.93-.11-.03-.22-.05-.33-.08-2.22-1.62-4.54-3.23-6.91-4.85.35,1.47.61,2.88.7,4.21-.11,0-.23,0-.34,0-2.1-1.11-4.28-2.2-6.5-3.29.51,1.3.94,2.57,1.22,3.78-.06,0-.12.02-.18.03-1.81-.86-3.67-1.72-5.56-2.57.52,1.2.96,2.37,1.28,3.5-.02,0-.04.01-.06.02-1.85-.52-3.74-1.03-5.66-1.53.65,1,1.24,2,1.72,2.98-.02,0-.05.02-.07.03-1.62-.3-3.26-.59-4.92-.87.66.83,1.26,1.67,1.78,2.5-.06.04-.13.08-.2.12-1.28-.13-2.58-.26-3.89-.38.59.64,1.14,1.28,1.64,1.93-16.32,12.67-5.12,39.47,5.36,65.49,4.36,13.43-12.76,21.15-17.07,9.18-6.31-19.31,5.11-28.75-12.05-43.83-.34-.3-.84-.3-1.2-.03-1.96,1.44-4.48,1.58-6.13.17-1.5-1.28-1.85-3.46-1.07-5.47.17-.45.04-.95-.36-1.21-3.75-2.46-8.24-5.07-13.6-7.91-2.24-1.3-2.6-1.31-2.79-4.27h0c-.17-2.17-2.04-3.86-4.27-3.74-2.07.11-3.77,1.83-3.85,3.9-.09,2.32,1.77,4.23,4.07,4.23.2,0,.4-.02.59-.04.49-.07,1-.01,1.47.14.53.18,1.02.37,1.47.59.68.33,1.23.88,1.59,1.54,5.53,10.12,6.9,19.14,3.88,26.99-.3.78.22,1.63,1.04,1.74,7.58,1,19.22.8,19.88,6.57.05,12.1-12.73,45.25,23.48,45.25,19.36-.41,48.16-1.99,19.67-50.12-10.68-22.34,19.64-20.1,16.86,11.9-2.84,31.59,24.18,42.57,62.02,29.42,67.95-33.55-20.36-88.23-24.83-116.59-2.39-19.9,10.66-36.28,34.53-50.21,9.71-5.66,25.07-11.54,40.13-16.95,2.64-.95,2.51-4.73-.19-5.49ZM282.33,262.06l-3.45,3.45-2.88-2.88-2.88,2.88-3.45-3.45,2.88-2.88-2.88-2.88,3.45-3.45,2.88,2.88,2.88-2.88,3.45,3.45-2.88,2.88,2.88,2.88ZM352.63,277.72c-26.4,4.53-67.17-41.67-57.91-77.18.15-.59,1.01-.54,1.09.07,4.63,33.18,25.99,68.8,56.84,76.53.31.08.3.54-.02.59Z"/>
      <polygon class="st3" points="380.57 228.79 380.88 237.86 345.03 239.08 380.57 228.79"/>
      <polygon class="st3" points="331.31 204.92 325.73 205.57 328.32 227.62 331.31 204.92"/>
      <path class="st3" d="M386.72,102.97h-25.76c-20.21,0-36.59,16.38-36.59,36.59v25.76c0,18.97,14.44,34.57,32.93,36.4l-.08.18-19.67,28.85c-.58.85.37,1.9,1.28,1.41l52.55-28.63c3.03-1.65,6.17-3.09,9.36-4.41,13.25-5.5,22.56-18.56,22.56-33.8v-25.76c0-20.21-16.38-36.59-36.59-36.59ZM361.31,173.58c0,.38-.38.75-.85.75h-20.65c-.38,0-.76-.38-.76-.75v-47.98c0-.38.28-.76.66-.76h17.63c.29,0,.66.28.66.66v27.62c0,.28.29.56.57.56,2.45,0,2.73,0,2.73.66v19.23ZM383.56,173.58c0,.38-.28.76-.66.76h-17.63c-.29,0-.66-.28-.66-.66v-27.62c0-.28-.29-.56-.57-.56-2.45,0-2.73,0-2.73-.66v-19.23c0-.38.38-.75.85-.75h20.65c.38,0,.76.38.76.75v47.98ZM408.63,173.58c0,.38-.28.76-.66.76h-17.63c-.29,0-.66-.28-.66-.66v-27.62c0-.28-.28-.56-.57-.56-2.45,0-2.73,0-2.73-.66v-19.23c0-.38.38-.75.85-.75h20.65c.38,0,.76.38.76.75v47.98Z"/>
    </g>
  </g>
  <g id="serpent_white" class="st4">
    <g>
      <path class="st2" d="M358.36,274.98c-36.41-10.2-54.17-43.78-57.95-76.32-.23-1.95-1.71-3.51-3.65-3.81l-5.07-.78c-2-.31-3.92.93-4.44,2.89-.36,1.34-.67,2.72-2.6,4.36-2.95,2.6-4.56,5.23-3.68,7.92,3.18,10.97.18,18.89-7.9,24.31-2.61,1.64-3.68,3.67-3.28,6.05.78,2.93-.83,5.46-3.79,7.77-3.57,2.9-5.34,7.18-4.7,13.31,1.05,9.19,3.95,17.34,2.69,23.36-.94,2.1-1.83,4.21-2.66,6.31l-.04.09h0c-1.45,3.7-2.72,7.41-3.82,11.13l-20.64,14.07,17.72-2.13s-.01.05-.02.08l-13.67,14.23,12.14-4.11c-.03.24-.05.47-.07.71l-8.62,11.58,8.06-3.92c0,.24-.02.49-.03.73l-3.39,7.43,3.32-2.6c0,.34,0,.68,0,1.01.42,37.34,37.82,41.78,41.48,71.46,2.65,25.35-15.88,25.73-23.53,5.77-4.92-15.79-10.24-26.87-15.87-34.4h0c-4.25-5.91-11.16-12.04-18.7-18.21.26,1.74.39,3.41.29,4.93-.11-.03-.22-.05-.33-.08-2.22-1.62-4.54-3.23-6.91-4.85.35,1.47.61,2.88.7,4.21-.11,0-.23,0-.34,0-2.1-1.11-4.28-2.2-6.5-3.29.51,1.3.94,2.57,1.22,3.78-.06,0-.12.02-.18.03-1.81-.86-3.67-1.72-5.56-2.57.52,1.2.96,2.37,1.28,3.5-.02,0-.04.01-.06.02-1.85-.52-3.74-1.03-5.66-1.53.65,1,1.24,2,1.72,2.98-.02,0-.05.02-.07.03-1.62-.3-3.26-.59-4.92-.87.66.83,1.26,1.67,1.78,2.5-.06.04-.13.08-.2.12-1.28-.13-2.58-.26-3.89-.38.59.64,1.14,1.28,1.64,1.93-16.32,12.67-5.12,39.47,5.36,65.49,4.36,13.43-12.76,21.15-17.07,9.18-6.31-19.31,5.11-28.75-12.05-43.83-.34-.3-.84-.3-1.2-.03-1.96,1.44-4.48,1.58-6.13.17-1.5-1.28-1.85-3.46-1.07-5.47.17-.45.04-.95-.36-1.21-3.75-2.46-8.24-5.07-13.6-7.91-2.24-1.3-2.6-1.31-2.79-4.27h0c-.17-2.17-2.04-3.86-4.27-3.74-2.07.11-3.77,1.83-3.85,3.9-.09,2.32,1.77,4.23,4.07,4.23.2,0,.4-.02.59-.04.49-.07,1-.01,1.47.14.53.18,1.02.37,1.47.59.68.33,1.23.88,1.59,1.54,5.53,10.12,6.9,19.14,3.88,26.99-.3.78.22,1.63,1.04,1.74,7.58,1,19.22.8,19.88,6.57.05,12.1-12.73,45.25,23.48,45.25,19.36-.41,48.16-1.99,19.67-50.12-10.68-22.34,19.64-20.1,16.86,11.9-2.84,31.59,24.18,42.57,62.02,29.42,67.95-33.55-20.36-88.23-24.83-116.59-2.39-19.9,10.66-36.28,34.53-50.21,9.71-5.66,25.07-11.54,40.13-16.95,2.64-.95,2.51-4.73-.19-5.49ZM282.33,262.06l-3.45,3.45-2.88-2.88-2.88,2.88-3.45-3.45,2.88-2.88-2.88-2.88,3.45-3.45,2.88,2.88,2.88-2.88,3.45,3.45-2.88,2.88,2.88,2.88ZM352.63,277.72c-26.4,4.53-67.17-41.67-57.91-77.18.15-.59,1.01-.54,1.09.07,4.63,33.18,25.99,68.8,56.84,76.53.31.08.3.54-.02.59Z"/>
      <polygon class="st2" points="380.57 228.79 380.88 237.86 345.03 239.08 380.57 228.79"/>
      <polygon class="st2" points="331.31 204.92 325.73 205.57 328.32 227.62 331.31 204.92"/>
      <path class="st2" d="M386.72,102.97h-25.76c-20.21,0-36.59,16.38-36.59,36.59v25.76c0,18.97,14.44,34.57,32.93,36.4l-.08.18-19.67,28.85c-.58.85.37,1.9,1.28,1.41l52.55-28.63c3.03-1.65,6.17-3.09,9.36-4.41,13.25-5.5,22.56-18.56,22.56-33.8v-25.76c0-20.21-16.38-36.59-36.59-36.59ZM361.31,173.58c0,.38-.38.75-.85.75h-20.65c-.38,0-.76-.38-.76-.75v-47.98c0-.38.28-.76.66-.76h17.63c.29,0,.66.28.66.66v27.62c0,.28.29.56.57.56,2.45,0,2.73,0,2.73.66v19.23ZM383.56,173.58c0,.38-.28.76-.66.76h-17.63c-.29,0-.66-.28-.66-.66v-27.62c0-.28-.29-.56-.57-.56-2.45,0-2.73,0-2.73-.66v-19.23c0-.38.38-.75.85-.75h20.65c.38,0,.76.38.76.75v47.98ZM408.63,173.58c0,.38-.28.76-.66.76h-17.63c-.29,0-.66-.28-.66-.66v-27.62c0-.28-.28-.56-.57-.56-2.45,0-2.73,0-2.73-.66v-19.23c0-.38.38-.75.85-.75h20.65c.38,0,.76.38.76.75v47.98Z"/>
    </g>
  </g>
  <g id="bubble_blue" class="st4">
    <path class="st1" d="M320.43,125.18h-64.86c-50.88,0-92.13,41.25-92.13,92.13v64.86c0,47.78,36.37,87.06,82.93,91.68l-.19.46-49.53,72.65c-1.46,2.13.94,4.78,3.21,3.55l132.33-72.1c7.63-4.16,15.54-7.78,23.57-11.12,33.36-13.86,56.82-46.74,56.82-85.12v-64.86c0-50.88-41.25-92.13-92.13-92.13ZM256.42,303c0,.95-.96,1.89-2.13,1.89h-51.99c-.96,0-1.91-.95-1.91-1.89v-120.83c0-.96.71-1.91,1.67-1.91h44.39c.72,0,1.67.71,1.67,1.67v69.56c0,.71.72,1.41,1.43,1.41,6.16,0,6.88,0,6.88,1.67v48.43ZM312.45,302.99c0,.96-.71,1.91-1.67,1.91h-44.39c-.72,0-1.67-.71-1.67-1.67v-69.56c0-.71-.72-1.41-1.43-1.41-6.16,0-6.88,0-6.88-1.67v-48.43c0-.95.96-1.89,2.13-1.89h51.99c.96,0,1.91.95,1.91,1.89v120.83ZM375.61,302.99c0,.96-.71,1.91-1.67,1.91h-44.39c-.72,0-1.67-.71-1.67-1.67v-69.56c0-.71-.71-1.41-1.43-1.41-6.18,0-6.88,0-6.88-1.67v-48.43c0-.95.95-1.89,2.13-1.89h51.99c.96,0,1.91.95,1.91,1.89v120.83Z"/>
  </g>
  <g id="bubble_green" class="st4">
    <path class="st3" d="M320.43,125.18h-64.86c-50.88,0-92.13,41.25-92.13,92.13v64.86c0,47.78,36.37,87.06,82.93,91.68l-.19.46-49.53,72.65c-1.46,2.13.94,4.78,3.21,3.55l132.33-72.1c7.63-4.16,15.54-7.78,23.57-11.12,33.36-13.86,56.82-46.74,56.82-85.12v-64.86c0-50.88-41.25-92.13-92.13-92.13ZM256.42,303c0,.95-.96,1.89-2.13,1.89h-51.99c-.96,0-1.91-.95-1.91-1.89v-120.83c0-.96.71-1.91,1.67-1.91h44.39c.72,0,1.67.71,1.67,1.67v69.56c0,.71.72,1.41,1.43,1.41,6.16,0,6.88,0,6.88,1.67v48.43ZM312.45,302.99c0,.96-.71,1.91-1.67,1.91h-44.39c-.72,0-1.67-.71-1.67-1.67v-69.56c0-.71-.72-1.41-1.43-1.41-6.16,0-6.88,0-6.88-1.67v-48.43c0-.95.96-1.89,2.13-1.89h51.99c.96,0,1.91.95,1.91,1.89v120.83ZM375.61,302.99c0,.96-.71,1.91-1.67,1.91h-44.39c-.72,0-1.67-.71-1.67-1.67v-69.56c0-.71-.71-1.41-1.43-1.41-6.18,0-6.88,0-6.88-1.67v-48.43c0-.95.95-1.89,2.13-1.89h51.99c.96,0,1.91.95,1.91,1.89v120.83Z"/>
  </g>
  <g id="bubble_white" class="st4">
    <path class="st2" d="M320.43,125.18h-64.86c-50.88,0-92.13,41.25-92.13,92.13v64.86c0,47.78,36.37,87.06,82.93,91.68l-.19.46-49.53,72.65c-1.46,2.13.94,4.78,3.21,3.55l132.33-72.1c7.63-4.16,15.54-7.78,23.57-11.12,33.36-13.86,56.82-46.74,56.82-85.12v-64.86c0-50.88-41.25-92.13-92.13-92.13ZM256.42,303c0,.95-.96,1.89-2.13,1.89h-51.99c-.96,0-1.91-.95-1.91-1.89v-120.83c0-.96.71-1.91,1.67-1.91h44.39c.72,0,1.67.71,1.67,1.67v69.56c0,.71.72,1.41,1.43,1.41,6.16,0,6.88,0,6.88,1.67v48.43ZM312.45,302.99c0,.96-.71,1.91-1.67,1.91h-44.39c-.72,0-1.67-.71-1.67-1.67v-69.56c0-.71-.72-1.41-1.43-1.41-6.16,0-6.88,0-6.88-1.67v-48.43c0-.95.96-1.89,2.13-1.89h51.99c.96,0,1.91.95,1.91,1.89v120.83ZM375.61,302.99c0,.96-.71,1.91-1.67,1.91h-44.39c-.72,0-1.67-.71-1.67-1.67v-69.56c0-.71-.71-1.41-1.43-1.41-6.18,0-6.88,0-6.88-1.67v-48.43c0-.95.95-1.89,2.13-1.89h51.99c.96,0,1.91.95,1.91,1.89v120.83Z"/>
  </g>
  <g id="lettermark_blue" class="st4">
    <g>
      <path class="st1" d="M443.27,180.25v215.47c0,1.71-1.26,3.4-2.97,3.4h-79.16c-1.28,0-2.97-1.26-2.97-2.97v-124.04c0-1.26-1.26-2.52-2.54-2.52-11.01,0-12.27,0-12.27-2.97v-86.36c0-1.69,1.69-3.38,3.81-3.38h92.71c1.71,0,3.4,1.69,3.4,3.38Z"/>
      <path class="st1" d="M330.65,180.25v215.47c0,1.71-1.26,3.4-2.97,3.4h-79.16c-1.28,0-2.97-1.26-2.97-2.97v-124.04c0-1.26-1.28-2.52-2.54-2.52-10.99,0-12.27,0-12.27-2.97v-86.36c0-1.69,1.71-3.38,3.81-3.38h92.71c1.71,0,3.4,1.69,3.4,3.38Z"/>
      <path class="st1" d="M132.73,395.75v-215.47c0-1.71,1.26-3.4,2.97-3.4h79.16c1.28,0,2.97,1.26,2.97,2.97v124.04c0,1.26,1.28,2.52,2.54,2.52,10.99,0,12.27,0,12.27,2.97v86.36c0,1.69-1.71,3.38-3.81,3.38h-92.71c-1.71,0-3.4-1.69-3.4-3.38Z"/>
    </g>
  </g>
  <g id="lettermark_green" class="st4">
    <g>
      <path class="st3" d="M443.27,180.25v215.47c0,1.71-1.26,3.4-2.97,3.4h-79.16c-1.28,0-2.97-1.26-2.97-2.97v-124.04c0-1.26-1.26-2.52-2.54-2.52-11.01,0-12.27,0-12.27-2.97v-86.36c0-1.69,1.69-3.38,3.81-3.38h92.71c1.71,0,3.4,1.69,3.4,3.38Z"/>
      <path class="st3" d="M330.65,180.25v215.47c0,1.71-1.26,3.4-2.97,3.4h-79.16c-1.28,0-2.97-1.26-2.97-2.97v-124.04c0-1.26-1.28-2.52-2.54-2.52-10.99,0-12.27,0-12.27-2.97v-86.36c0-1.69,1.71-3.38,3.81-3.38h92.71c1.71,0,3.4,1.69,3.4,3.38Z"/>
      <path class="st3" d="M132.73,395.75v-215.47c0-1.71,1.26-3.4,2.97-3.4h79.16c1.28,0,2.97,1.26,2.97,2.97v124.04c0,1.26,1.28,2.52,2.54,2.52,10.99,0,12.27,0,12.27,2.97v86.36c0,1.69-1.71,3.38-3.81,3.38h-92.71c-1.71,0-3.4-1.69-3.4-3.38Z"/>
    </g>
  </g>
  <g id="lettermark_white" class="st4">
    <g>
      <path class="st2" d="M443.27,180.25v215.47c0,1.71-1.26,3.4-2.97,3.4h-79.16c-1.28,0-2.97-1.26-2.97-2.97v-124.04c0-1.26-1.26-2.52-2.54-2.52-11.01,0-12.27,0-12.27-2.97v-86.36c0-1.69,1.69-3.38,3.81-3.38h92.71c1.71,0,3.4,1.69,3.4,3.38Z"/>
      <path class="st2" d="M330.65,180.25v215.47c0,1.71-1.26,3.4-2.97,3.4h-79.16c-1.28,0-2.97-1.26-2.97-2.97v-124.04c0-1.26-1.28-2.52-2.54-2.52-10.99,0-12.27,0-12.27-2.97v-86.36c0-1.69,1.71-3.38,3.81-3.38h92.71c1.71,0,3.4,1.69,3.4,3.38Z"/>
      <path class="st2" d="M132.73,395.75v-215.47c0-1.71,1.26-3.4,2.97-3.4h79.16c1.28,0,2.97,1.26,2.97,2.97v124.04c0,1.26,1.28,2.52,2.54,2.52,10.99,0,12.27,0,12.27,2.97v86.36c0,1.69-1.71,3.38-3.81,3.38h-92.71c-1.71,0-3.4-1.69-3.4-3.38Z"/>
    </g>
  </g>
</svg>